<svg id="Ai_Icon" data-name="Ai Icon" xmlns="http://www.w3.org/2000/svg" width="32" height="32" viewBox="0 0 32 32">
  <g id="Icon" transform="translate(3.5 3.216)">
    <g id="Group_19" data-name="Group 19" transform="translate(0)">
      <g id="Group_18" data-name="Group 18">
        <path id="Path_223" data-name="Path 223" d="M20.283,6.824A7.979,7.979,0,0,1,14.112.653a.822.822,0,0,0-1.608,0A7.979,7.979,0,0,1,6.332,6.824a.822.822,0,0,0,0,1.608A7.979,7.979,0,0,1,12.5,14.6a.822.822,0,0,0,1.608,0,7.979,7.979,0,0,1,6.171-6.171.822.822,0,0,0,0-1.608Z" transform="translate(-5.679)" fill="#febb63"/>
      </g>
    </g>
    <g id="Group_21" data-name="Group 21" transform="translate(5.169 16.837)">
      <g id="Group_20" data-name="Group 20" transform="translate(0)">
        <path id="Path_224" data-name="Path 224" d="M117.269,340.737a3.759,3.759,0,0,1-2.908-2.908.822.822,0,0,0-1.608,0,3.759,3.759,0,0,1-2.908,2.908.822.822,0,0,0,0,1.608,3.759,3.759,0,0,1,2.908,2.908.822.822,0,0,0,1.608,0,3.759,3.759,0,0,1,2.908-2.908.822.822,0,0,0,0-1.608Z" transform="translate(-109.192 -337.176)" fill="#b373fc"/>
      </g>
    </g>
    <g id="Group_23" data-name="Group 23" transform="translate(14.225 8.207)">
      <g id="Group_22" data-name="Group 22">
        <path id="Path_225" data-name="Path 225" d="M300.669,168.934a5.081,5.081,0,0,1-3.93-3.93.822.822,0,0,0-1.608,0,5.081,5.081,0,0,1-3.93,3.93.822.822,0,0,0,0,1.608,5.081,5.081,0,0,1,3.93,3.93.822.822,0,0,0,1.608,0,5.081,5.081,0,0,1,3.93-3.93.822.822,0,0,0,0-1.608Z" transform="translate(-290.547 -164.351)" fill="#f992e0"/>
      </g>
    </g>
  </g>
  <rect id="Container" width="32" height="32" fill="none"/>
</svg>
